<svg width="40" height="40" viewBox="0 0 40 40" fill="none" xmlns="http://www.w3.org/2000/svg">
<path d="M14.9773 32.8333V16.9444C14.9773 15.0882 16.4323 13.5833 18.2273 13.5833H24.1364C24.6259 13.5833 25.0227 13.9937 25.0227 14.5C25.0227 15.0063 24.6259 15.4167 24.1364 15.4167H18.2273C17.4114 15.4167 16.75 16.1007 16.75 16.9444V32.8333C16.75 33.3396 16.3532 33.75 15.8636 33.75C15.3741 33.75 14.9773 33.3396 14.9773 32.8333Z" fill="#747D8A"/>
<path d="M31.5227 32.8333V9.61111C31.5227 8.76734 30.8613 8.08333 30.0455 8.08333H26.5C25.6841 8.08333 25.0227 8.76734 25.0227 9.61111V32.8333C25.0227 33.3396 24.6259 33.75 24.1364 33.75C23.6468 33.75 23.25 33.3396 23.25 32.8333V9.61111C23.25 7.75482 24.7051 6.25 26.5 6.25H30.0455C31.8404 6.25 33.2955 7.75482 33.2955 9.61111V32.8333C33.2955 33.3396 32.8986 33.75 32.4091 33.75C31.9196 33.75 31.5227 33.3396 31.5227 32.8333Z" fill="#747D8A"/>
<path d="M35.3636 31.9167C35.8532 31.9167 36.25 32.3271 36.25 32.8333C36.25 33.3396 35.8532 33.75 35.3636 33.75H4.63636C4.14684 33.75 3.75 33.3396 3.75 32.8333C3.75 32.3271 4.14684 31.9167 4.63636 31.9167H35.3636Z" fill="#747D8A"/>
<path d="M6.70455 32.8333V24.2778C6.70455 22.4215 8.15962 20.9167 9.95455 20.9167H15.8636C16.3532 20.9167 16.75 21.3271 16.75 21.8333C16.75 22.3396 16.3532 22.75 15.8636 22.75H9.95455C9.13867 22.75 8.47727 23.434 8.47727 24.2778V32.8333C8.47727 33.3396 8.08043 33.75 7.59091 33.75C7.10138 33.75 6.70455 33.3396 6.70455 32.8333Z" fill="#747D8A"/>
</svg>
